<mxfile host="app.diagrams.net" modified="2023-09-22T12:30:20.396Z" agent="Mozilla/5.0 (Windows NT 10.0; Win64; x64) AppleWebKit/537.36 (KHTML, like Gecko) Chrome/101.0.4951.54 Safari/537.36" version="21.8.0" etag="8--BQoDzToTuI_z-hy2M" type="github">
  <diagram name="PÃ¡gina-1" id="ZcoRRCf36Up_U2gZGWUd">
    <mxGraphModel>
      <root>
        <mxCell id="0" />
        <mxCell id="1" parent="0" />
      </root>
    </mxGraphModel>
  </diagram>
</mxfile>
